<svg t="1749806739986" class="icon" viewBox="0 0 1587 1024" version="1.1" xmlns="http://www.w3.org/2000/svg" p-id="32550" width="1em" height="1em"><path d="M6.574755 1017.67812h1574.075778V6.24963H6.574755v1011.50074z m1577.363155 3.215128zM0 1024V0h1587.225288v1024z" fill="#DEDEDE" p-id="32551"></path><path d="M1583.93791 1020.784873H3.323502V3.142877h1580.614408v1017.641996z" fill="#003894" p-id="32552"></path><path d="M1583.93791 359.335638H951.677697V3.142877h-316.093981v356.192761H3.323502v305.328724h632.260214v356.120511h316.093981v-356.120511h632.260213V359.335638z" fill="#FFFFFF" p-id="32553"></path><path d="M1583.93791 903.920412L184.70726 3.142877H3.323502v117.803712l1397.857899 899.838284h182.756509v-116.864461z" fill="#FFFFFF" p-id="32554"></path><path d="M3.323502 903.920412L1402.554152 3.142877h181.383758v117.803712L186.080011 1020.784873H3.323502v-116.864461z" fill="#FFFFFF" p-id="32555"></path><path d="M1583.93791 422.915685H885.821774V3.142877h-184.41826v419.772808H3.323502v178.09638h698.080012v419.772808h184.41826v-419.772808h698.116136v-178.09638z" fill="#E60012" p-id="32556"></path><path d="M1583.93791 1017.894871V937.444437l-424.830311-272.780075h-125.137092l549.967403 353.230509zM1583.93791 3.142877h-124.992591l-507.267622 325.847739v30.345022H1029.563254L1583.93791 3.215127V3.142877zM553.47153 664.664362L3.323502 1017.967121v2.817752h120.693714l511.5665-328.593241v-27.52727h-82.112186zM3.323502 3.793128V84.171312l428.334439 275.164326h125.137092L3.323502 3.793128z" fill="#E60012" p-id="32557"></path></svg>