<svg t="1750489707865" class="icon" viewBox="0 0 1024 1024" version="1.1" xmlns="http://www.w3.org/2000/svg" p-id="24859" id="mx_n_1750489707866" width="200" height="200"><path d="M512 781.552941c-29.244235 0-58.49851-4.73851-86.949647-14.225568-109.096157-37.145098-182.613333-139.916549-182.613333-255.327373 0-148.61051 120.952471-269.552941 269.56298-269.552941 148.61051 0 269.552941 120.942431 269.552941 269.552941 0 127.267137-90.112 237.929412-214.216784 264.031373-18.18102 3.152314-37.155137 5.521569-55.336157 5.521568z m0-523.304157c-139.916549 0-253.751216 113.834667-253.751216 253.751216A253.630745 253.630745 0 0 0 430.581961 752.308706c42.686745 14.225569 89.318902 17.387922 133.591843 7.900863C681.160784 735.713882 765.751216 631.366275 765.751216 512c0-139.916549-113.834667-253.751216-253.751216-253.751216z" fill="#1C1E8C" p-id="24860"></path><path d="M578.399373 1013.960784H445.600627c-7.910902 0-14.225569-5.531608-15.811764-13.442509l-12.649412-70.344785c-48.218353-11.073255-94.067451-29.254275-135.961098-56.129255l-58.49851 41.100549A15.671216 15.671216 0 0 1 202.129569 913.568627L110.431373 820.294275a15.671216 15.671216 0 0 1-1.576157-20.560314l41.100549-58.488471c-26.87498-41.903686-45.056-86.959686-56.119216-135.971137l-70.354824-12.649412C15.560784 591.048784 10.039216 584.724078 10.039216 576.823216V445.600627c0-7.910902 5.531608-14.225569 13.442509-15.811764l70.344785-12.649412c11.073255-48.218353 29.254275-94.067451 56.129255-135.961098l-41.100549-56.922353A15.671216 15.671216 0 0 1 110.431373 203.715765L203.705725 110.431373a15.671216 15.671216 0 0 1 20.560314-1.576157l58.488471 41.100549c41.903686-26.87498 86.959686-45.056 135.971137-56.119216l12.649412-70.354824C432.951216 15.560784 439.275922 10.039216 447.176784 10.039216h132.015687c7.900863 0 14.225569 5.531608 15.811764 13.442509l12.649412 70.344785c48.218353 11.073255 94.067451 29.254275 135.961098 56.129255l58.49851-41.100549a15.671216 15.671216 0 0 1 20.550274 1.576157L913.568627 203.705725c5.531608 5.541647 6.324706 14.235608 1.576157 20.560314l-41.100549 58.488471c26.87498 41.903686 45.056 86.959686 56.119216 135.971137l70.354824 12.649412c7.910902 1.576157 13.44251 7.900863 13.442509 15.801725v132.015687c0 7.900863-5.531608 14.225569-13.442509 15.811764l-70.344785 12.649412c-11.073255 48.218353-29.254275 94.067451-56.129255 135.961098l41.100549 58.49851c4.748549 6.324706 3.955451 15.018667-1.576157 20.550274L820.294275 913.568627a15.671216 15.671216 0 0 1-20.560314 1.576157l-58.488471-41.100549c-41.903686 26.87498-86.959686 45.056-135.971137 56.119216l-12.649412 70.354824c0 7.910902-7.107765 13.44251-14.225568 13.442509z m-119.366275-31.623529h105.933804l11.846274-67.192471c0.803137-6.324706 6.324706-11.846275 12.649412-12.649411 51.390745-10.270118 100.392157-30.027294 143.872-59.281569a15.420235 15.420235 0 0 1 18.18102 0l56.119216 39.524392 74.310274-74.300235-39.524392-56.129255a15.420235 15.420235 0 0 1 0-18.18102c29.254275-43.469804 49.804549-92.491294 59.291608-143.861961 1.576157-6.324706 6.324706-11.073255 12.649411-12.649411l67.192471-11.866353v-106.716863l-67.192471-11.846274c-6.324706-0.803137-11.856314-6.324706-12.649411-12.649412-10.280157-51.390745-30.037333-100.392157-59.291608-143.872a15.420235 15.420235 0 0 1 0-18.18102l39.524392-56.119216-74.300235-74.310274-56.119216 39.524392a15.420235 15.420235 0 0 1-18.191059 0c-43.469804-29.254275-92.481255-49.804549-143.861961-59.291608a17.15702 17.15702 0 0 1-12.649411-12.649411l-11.856314-67.192471H459.033098l-11.846274 66.409412c-0.803137 6.324706-6.324706 11.846275-12.649412 12.649411-51.390745 10.270118-100.392157 30.027294-143.872 59.281569a15.420235 15.420235 0 0 1-18.18102 0l-56.119216-39.524392-74.310274 74.300235 39.524392 56.129255c3.945412 5.531608 3.945412 12.649412 0 18.18102-29.254275 43.469804-49.804549 92.491294-59.291608 143.861961a17.15702 17.15702 0 0 1-12.649411 12.649411l-67.192471 11.866353v105.913726l67.192471 11.866353c6.324706 0.793098 11.856314 6.324706 12.649411 12.649411 10.280157 51.380706 30.037333 100.392157 59.291608 143.861961 3.945412 5.541647 3.945412 12.649412 0 18.191059l-39.524392 56.119216 74.300235 74.310274 56.119216-39.524392a15.420235 15.420235 0 0 1 18.191059 0c43.469804 29.244235 92.481255 49.79451 143.861961 59.281569 6.324706 1.586196 11.073255 6.324706 12.649411 12.649411l11.856314 68.768628z" fill="#1C1E8C" p-id="24861"></path><path d="M437.037176 754.567529a7.228235 7.228235 0 0 1-5.280627-6.786509V627.993098c-9.035294-6.023529-18.070588-12.810039-25.610039-20.339451-30.137725-30.137725-46.712471-70.073725-46.712471-113.011451 0-42.937725 16.574745-82.873725 46.712471-113.011451 31.643608-31.633569 73.828392-48.208314 119.03498-46.702431 2.258824 0 3.764706 0.752941 5.270588 2.258823l16.574746 16.564706c1.505882 1.505882 2.258824 3.021804 2.258823 5.280628a6.836706 6.836706 0 0 1-2.258823 5.270588l-72.32251 71.579608 24.857098 79.109019 79.109019 24.857098 72.32251-72.322509c3.011765-3.011765 7.529412-3.011765 10.551216 0l16.574745 16.564705c1.505882 1.505882 2.258824 3.011765 2.258823 5.280628 1.505882 44.443608-15.821804 87.391373-46.71247 119.03498-15.821804 15.821804-33.902431 27.878902-54.241882 35.408314v112.25851c0 3.764706-2.258824 6.776471-6.02353 7.529412-18.080627 2.258824-36.161255 4.517647-53.488941 4.517647-27.878902 0-55.757804-4.517647-82.873726-13.552942z m10.541177-12.810039c37.677176 12.047059 77.603137 14.315922 116.023216 7.529412V637.791373c0-3.011765 2.258824-6.023529 5.280627-6.78651 20.339451-7.529412 38.420078-18.833569 53.488941-33.902432a143.821804 143.821804 0 0 0 42.184785-104.719058l-9.035295-9.035295-70.073725 70.063687c-2.258824 2.258824-5.270588 3.011765-7.529412 1.505882l-86.638431-27.125961c-2.258824-0.752941-4.517647-2.258824-5.270588-5.270588l-27.125961-86.638431c-0.752941-3.011765 0-5.280627 1.505882-7.529412l70.073726-70.073726-9.045334-9.035294a143.821804 143.821804 0 0 0-104.719059 42.184785 144.805647 144.805647 0 0 0-42.194823 102.460235c0 38.420078 15.058824 75.344314 42.194823 102.460235 7.529412 7.529412 16.564706 15.068863 26.362981 21.092392 2.258824 1.505882 3.764706 3.774745 3.764706 6.78651v117.529098h0.752941z" fill="#1C1E8C" p-id="24862"></path></svg>