<svg t="1749802555553" class="icon" viewBox="0 0 1024 1024" version="1.1" xmlns="http://www.w3.org/2000/svg" p-id="23293" width="1em" height="1em"><path d="M1023.9488 511.5904c0-282.5216-229.2224-511.5904-512-511.5904C229.2736 0 0 229.0688 0 511.5904c0 261.0176 195.584 476.3136 448.3072 507.648a255.7952 255.7952 0 0 0 69.0176 3.8912C797.696 1020.2624 1024 792.32 1024 511.5904z m-73.216 7.2192a501.76 501.76 0 0 0-9.984-74.752c0.4608-8.704 0.5632-16.896 0.3584-24.576a439.9104 439.9104 0 0 1 9.6256 99.328z m-877.568-7.2192c0-31.0272 3.2256-61.2864 9.3184-90.4704 18.944 20.2752 63.6416 19.8144 74.5472-10.496 19.456 11.6224 45.6704 13.7728 45.6704 36.9664 0 76.6464 2.7136 158.7712 72.3456 160.0512 1.9456 0 38.8096 13.9776 56.32 59.4944 6.144 15.7184 30.1056 0 56.4224 0 13.1584 0 0 22.1184 0 69.9904 0 47.616 102.7584 121.0368 102.7584 121.0368-0.4608 31.5904 0.8704 57.088 3.4816 77.4656a171.9296 171.9296 0 0 0-58.112 7.8848c-206.1312-35.9936-362.8032-215.6544-362.8032-431.9232z m546.816 425.1136c-2.2528-11.1616-12.1856-17.2544-30.3616-12.4928 14.4896-61.696 21.504-96.256 51.7632-122.4704 43.776-37.9392 5.2224-80.128-28.0576-75.1616-26.2656 3.9424-9.6768-32.512-33.1264-34.5088-23.3984-1.9968-54.016-48.5888-87.7056-64.6144-17.92-8.4992-35.4304-31.232-62.976-32.256-24.4736-0.9216-60.16 20.6848-60.16 3.9936 0-53.6064-5.4272-91.904-6.5536-107.2128-0.9216-12.288-8.0384-4.096 24.9856-3.328 17.9712 0.512 9.216-36.096 26.9824-37.5296 17.4592-1.3824 59.136 16.384 69.7344 9.2672 9.8304-6.5536 72.448 164.352 72.448 28.2624 0-16.128-8.3968-44.1856 0-59.4944 33.024-60.416 64-109.6704 61.2352-116.8384-1.5872-4.096-33.792-7.424-59.648 1.2288-8.704 2.9184 2.7648 16.5376-9.728 19.456-46.848 10.8544-88.2688-12.5952-73.728-34.6624 14.848-22.5792 68.608-9.8304 73.3184-55.1936 2.7136-25.9584 4.9664-56.0128 6.4512-78.336 63.0784 9.8304 56.1152-81.92-37.632-91.648a438.9888 438.9888 0 0 1 409.4464 294.7584 17.8688 17.8688 0 0 0-10.4448-4.8128c-28.3648-70.8096-97.1776-19.5584-73.8304 42.9056-125.0816 96.1536-93.0816 163.2256-51.968 201.6256 21.6064 20.1728 42.24 50.5344 55.6544 72.3456-14.592 42.5984 53.8624 25.5488 87.6032-46.7456a439.5008 439.5008 0 0 1-313.6512 303.4624z" fill="#1C1E87" p-id="23294"></path></svg>