<svg t="1750488269389" class="icon" viewBox="0 0 1024 1024" version="1.1" xmlns="http://www.w3.org/2000/svg" p-id="19004" width="1em" height="1em"><path d="M851.335392 656.681796l-36.035622-5.123432a8.33477 8.33477 0 0 1-6.251077-4.927319l-16.301829-33.95193a16.301829 16.301829 0 0 0-29.956143 0l-15.934118 33.755817a8.726994 8.726994 0 0 1-6.251078 5.123432l-36.035622 5.123432a17.821699 17.821699 0 0 0-9.486929 29.956143l25.98487 26.180983c2.034664 2.034664 2.941683 4.92732 2.451403 7.770947l-6.618787 37.923202a16.865652 16.865652 0 0 0 24.465 18.949344l32.407546-18.949344a7.599349 7.599349 0 0 1 7.770947 0l32.43206 17.429474a16.865652 16.865652 0 0 0 24.268888-18.949344l-6.251077-37.923202a10.810687 10.810687 0 0 1 2.647515-7.967059l25.788758-25.98487a17.821699 17.821699 0 0 0-9.070191-28.436274z" fill="#1C1E8C" p-id="19005"></path><path d="M500.51513 937.906732H171.144642a61.260557 61.260557 0 0 1-61.039931-61.260558V137.106962a61.260557 61.260557 0 0 1 61.039931-61.260558h674.307383a61.260557 61.260557 0 0 1 61.064445 61.064445v337.165949a37.923202 37.923202 0 1 0 75.846405 0V136.910849A137.106962 137.106962 0 0 0 845.452025 0H171.144642A137.106962 137.106962 0 0 0 34.233793 136.910849v739.539213c0 75.650292 61.285071 137.008905 136.910849 137.106962h329.370488a37.923202 37.923202 0 1 0 0-75.846404v0.196112z" fill="#1C1E8C" p-id="19006"></path><path d="M212.107584 187.164608h585.395001c20.591784 0 30.887676 10.295892 30.887676 30.887676v15.566408c0 20.591784-10.295892 30.91219-30.887676 30.91219H212.08307c-20.591784 0-30.91219-10.295892-30.91219-30.887676v-15.566408c0-20.591784 10.295892-30.91219 30.887676-30.91219z" fill="#1C1E8C" p-id="19007"></path><path d="M212.107584 368.249737H601.978694c20.591784 0 30.887676 10.295892 30.887676 30.91219v15.541894c0 20.616298-10.295892 30.91219-30.887676 30.91219H212.107584c-20.591784 0-30.91219-10.295892-30.91219-30.887676v-15.566408c0-20.591784 10.295892-30.887676 30.887676-30.887676z" fill="#1C1E8C" p-id="19008"></path><path d="M212.107584 552.374605h286.716078c20.591784 0 30.887676 10.295892 30.887676 30.91219v15.566408c0 20.591784-10.295892 30.887676-30.887676 30.887676H212.107584c-20.591784 0-30.91219-10.295892-30.91219-30.887676v-15.566408c0-20.591784 10.295892-30.887676 30.887676-30.887676zM925.490328 838.52686a209.545916 209.545916 0 1 0-295.443071 0l-64.86412 112.078139 88.176961-6.44719 37.923202 79.449967 72.071244-124.580293c9.339845 0.563823 18.704204 0.563823 28.068562 0l72.438955 124.972517 37.923202-79.474481 87.980848 6.44719-64.275783-112.445849z m-2.672029-148.481471a145.074021 145.074021 0 1 1-42.286699-102.198985 143.897348 143.897348 0 0 1 42.482812 102.223499h-0.196113z" fill="#1C1E8C" p-id="19009"></path></svg>