<svg t="1750490136255" class="icon" viewBox="0 0 1024 1024" version="1.1" xmlns="http://www.w3.org/2000/svg" p-id="48341" id="mx_n_1750490136255" width="200" height="200"><path d="M128 85.333333a42.666667 42.666667 0 0 0-42.666667 42.666667v298.666667a42.666667 42.666667 0 0 0 42.666667 42.666666h298.666667a42.666667 42.666667 0 0 0 42.666666-42.666666V128a42.666667 42.666667 0 0 0-42.666666-42.666667H128z m42.666667 298.666667V170.666667h213.333333v213.333333H170.666667zM85.333333 640h661.333334a106.666667 106.666667 0 0 1 0 213.333333H85.333333v85.333334h661.333334a192 192 0 1 0 0-384H85.333333v85.333333z" p-id="48342" fill="#1C1E8C"></path><path d="M768 746.666667a64 64 0 1 1-128 0 64 64 0 0 1 128 0zM448 810.666667a64 64 0 1 0 0-128 64 64 0 0 0 0 128zM256 746.666667a64 64 0 1 1-128 0 64 64 0 0 1 128 0zM768 234.666667h-213.333333v85.333333h213.333333v85.333333l128-128-128-128v85.333334z" p-id="48343" fill="#1C1E8C"></path></svg>