<svg t="1751090753651" class="icon" viewBox="0 0 1024 1024" version="1.1" xmlns="http://www.w3.org/2000/svg" p-id="11944" width="1em" height="1em" fill="#fff"><path d="M780.8 0H236.8C185.6 0 147.2 38.4 147.2 89.6v838.4c0 57.6 38.4 96 89.6 96h544c51.2 0 89.6-38.4 89.6-89.6V89.6C876.8 38.4 832 0 780.8 0zM422.4 64h179.2c6.4 0 19.2 6.4 19.2 19.2s-12.8 12.8-19.2 12.8H422.4c-6.4 0-19.2-6.4-19.2-12.8s12.8-19.2 19.2-19.2z m89.6 851.2c-38.4 0-64-32-64-64 0-38.4 32-64 64-64s64 32 64 64c0 38.4-25.6 64-64 64z m294.4-236.8c0 12.8-12.8 25.6-25.6 25.6H236.8c-12.8 0-25.6-12.8-25.6-25.6V185.6c0-12.8 12.8-25.6 25.6-25.6H787.2c12.8 0 25.6 12.8 25.6 25.6l-6.4 492.8z" p-id="11945"></path></svg>