<svg t="1751093652844" class="icon" viewBox="0 0 1024 1024" version="1.1" xmlns="http://www.w3.org/2000/svg" p-id="13105" width="1em" height="1em"><path d="M752.64 1024c-66.56 0-151.05024-43.52-209.92-81.93024-79.36-48.62976-166.4-117.76-243.2-191.98976l-25.6-25.6c-74.24-76.8-143.36-163.84-192-243.2C43.52 422.4 0 337.92 0 271.36c0-71.68 51.2-145.92 71.68-174.08 17.92-23.04 76.8-97.28 128-97.28 20.48 0 43.52 12.8 71.68 43.52 25.6 25.6 51.2 58.88 66.56 84.48 23.04 30.72 40.96 64 56.32 92.16 23.04 46.08 25.6 64 25.6 76.8 0 20.48-10.24 40.96-33.28 56.32-15.36 10.24-33.28 17.92-48.64 25.6-10.24 5.12-30.72 12.8-35.84 17.92 2.56 10.24 12.8 35.84 40.96 76.80512C371.2 512 404.48 555.50976 435.2 588.8c33.28 30.72 74.24 66.56 115.2 92.16 43.52 28.16 66.56 38.38976 76.8 40.96 5.12-7.68 12.8-25.6 17.92-35.84 7.68-17.92 15.34976-35.84 25.6-48.64 15.36-23.05024 33.28-33.28 56.32-33.28 10.24 0 30.72 2.56 76.8 25.6 28.16 15.36 61.44 35.84 92.14976 56.32 23.05024 15.36 56.33024 40.96 84.49024 66.56 30.72 28.16 43.52 51.2 43.52 71.66976C1024 875.52 949.76 934.4 926.72 949.76c-28.16 23.04-102.41024 74.24-174.08 74.24z" fill="#fff" p-id="13106"></path></svg>